<svg width="200" height="204" viewBox="0 0 200 204" fill="none" xmlns="http://www.w3.org/2000/svg">
<rect width="200" height="200" rx="12" fill="#0075CD"/>
<path d="M65.4609 178.844L76.7891 127.125H83.5469L87.2188 131.539L75.1484 184H67.6875L65.4609 178.844ZM62.4531 127.125L72.0234 179.234L69.5625 184H60.9297L48.8594 127.125H62.4531ZM93.4297 178.961L102.922 127.125H116.477L104.406 184H95.8125L93.4297 178.961ZM88.4297 127.125L100.031 179.156L97.6875 184H90.2266L77.8828 131.461L81.7109 127.125H88.4297ZM134.992 178.844L146.32 127.125H153.078L156.75 131.539L144.68 184H137.219L134.992 178.844ZM131.984 127.125L141.555 179.234L139.094 184H130.461L118.391 127.125H131.984ZM162.961 178.961L172.453 127.125H186.008L173.938 184H165.344L162.961 178.961ZM157.961 127.125L169.562 179.156L167.219 184H159.758L147.414 131.461L151.242 127.125H157.961Z" fill="#2F4136"/>
</svg>
